<?xml version="1.0" standalone="no"?>
<!DOCTYPE svg PUBLIC "-//W3C//DTD SVG 20010904//EN"
 "http://www.w3.org/TR/2001/REC-SVG-20010904/DTD/svg10.dtd">
<svg version="1.0" xmlns="http://www.w3.org/2000/svg"
 width="417.000000pt" height="417.000000pt" viewBox="0 0 417.000000 417.000000"
 preserveAspectRatio="xMidYMid meet">
<metadata>
Created by potrace 1.14, written by Peter Selinger 2001-2017
</metadata>
<g transform="translate(0.000000,417.000000) scale(0.100000,-0.100000)"
fill="#000000" stroke="none">
<path d="M1881 3979 c-443 -47 -863 -254 -1176 -580 -149 -156 -250 -302 -344
-500 -235 -495 -247 -1056 -34 -1560 143 -336 394 -637 702 -843 628 -419
1459 -421 2091 -6 128 85 216 158 331 276 280 290 456 650 515 1054 23 162 16
471 -15 625 -196 972 -1092 1636 -2070 1534z m909 -348 c61 -31 97 -66 128
-126 22 -41 26 -63 26 -125 0 -62 -4 -84 -26 -125 -34 -65 -48 -77 -278 -241
-500 -355 -983 -729 -1282 -993 -53 -47 -95 -87 -93 -89 5 -5 196 70 531 209
517 214 638 251 744 228 109 -23 174 -105 174 -219 0 -118 -56 -201 -303 -454
-115 -117 -158 -167 -141 -162 130 33 267 50 420 50 186 1 243 -10 369 -69 90
-43 191 -141 239 -232 36 -69 72 -196 72 -255 0 -69 -41 -124 -105 -138 -82
-18 -155 32 -174 120 -27 124 -72 189 -160 233 -65 32 -67 32 -206 31 -174 -1
-277 -23 -608 -131 -308 -100 -387 -107 -462 -41 -49 43 -66 80 -66 144 0 99
45 171 241 384 58 63 101 111 95 108 -53 -31 -479 -215 -632 -272 -195 -72
-317 -99 -437 -94 -86 3 -110 8 -158 31 -67 33 -112 80 -146 155 -21 47 -24
64 -20 133 8 135 87 268 288 484 281 302 830 775 1500 1292 250 193 252 194
360 190 45 -2 79 -10 110 -26z"/>
</g>
</svg>
